<svg width="140" height="140" viewBox="0 0 140 140" fill="none" xmlns="http://www.w3.org/2000/svg">
<path d="M90.9993 19.2559C82.8327 19.2559 75.8327 22.1725 69.9993 28.0059L57.166 40.8392C54.8327 43.1725 54.8327 46.6725 57.166 49.0059C59.4993 51.3392 62.9993 51.3392 65.3327 49.0059L78.166 36.1725C85.166 29.1725 96.8327 29.1725 103.833 36.1725C107.333 39.6725 109.083 44.3392 109.083 49.0059C109.083 53.6725 107.333 58.3392 103.833 61.8392L90.9993 74.6725C88.666 77.0059 88.666 80.5059 90.9993 82.8392C92.166 84.0059 93.916 84.5892 95.0827 84.5892C96.2493 84.5892 97.9993 84.0059 99.166 82.8392L111.999 70.0059C117.833 64.1725 120.749 57.1725 120.749 49.0059C120.749 40.8392 117.833 33.8392 111.999 28.0059C106.166 22.1725 99.166 19.2559 90.9993 19.2559Z" fill="black"/>
<path d="M48.999 65.9264C51.3324 63.5931 51.3324 60.0931 48.999 57.7598C46.6657 55.4264 43.1657 55.4264 40.8324 57.7598L27.999 70.0098C22.1657 75.8431 19.249 82.8431 19.249 91.0098C19.249 99.1764 22.1657 106.176 27.999 112.01C33.8324 117.843 40.8324 120.76 48.999 120.76C57.1657 120.76 64.1657 117.843 69.999 112.01L82.8324 99.1764C85.1657 96.8431 85.1657 93.3431 82.8324 91.0098C80.499 88.6764 76.999 88.6764 74.6657 91.0098L61.8324 103.843C54.8324 110.843 43.1657 110.843 36.1657 103.843C32.6657 100.343 30.9157 95.6764 30.9157 91.0098C30.9157 86.3431 32.6657 81.6764 36.1657 78.1764L48.999 65.9264Z" fill="black"/>
<path d="M53.082 86.9199C54.2487 88.0866 55.9987 88.6699 57.1654 88.6699C58.332 88.6699 60.082 88.0866 61.2487 86.9199L86.332 61.8366C88.6654 59.5033 88.6654 56.0033 86.332 53.6699C83.9987 51.3366 80.4987 51.3366 78.1654 53.6699L53.082 78.7533C50.7487 80.5033 50.7487 84.5866 53.082 86.9199Z" fill="black"/>
</svg>
