<svg width="90" height="90" viewBox="0 0 90 90" fill="none" xmlns="http://www.w3.org/2000/svg">
<path d="M83.0603 72.4245L55.7708 45.135L83.0603 17.8455C86.0066 14.8992 86.0066 10.156 83.0603 7.2097C80.114 4.26343 75.3708 4.26343 72.4245 7.2097L45.135 34.4992L17.8455 7.2097C14.8992 4.26343 10.156 4.26343 7.2097 7.2097C4.26343 10.156 4.26343 14.8992 7.2097 17.8455L34.4992 45.135L7.2097 72.4245C4.26343 75.3708 4.26343 80.114 7.2097 83.0603C10.156 86.0066 14.8992 86.0066 17.8455 83.0603L45.135 55.7708L72.4245 83.0603C75.3708 86.0066 80.114 86.0066 83.0603 83.0603C85.9857 80.114 85.9857 75.3499 83.0603 72.4245Z" fill="black"/>
</svg>
