<svg width="90" height="90" viewBox="0 0 90 90" fill="none" xmlns="http://www.w3.org/2000/svg">
<path d="M73.3483 65.3983L52.95 45L73.3483 24.6017C75.5506 22.3995 75.5506 18.854 73.3483 16.6517C71.146 14.4494 67.6006 14.4494 65.3983 16.6517L45 37.05L24.6017 16.6517C22.3995 14.4494 18.854 14.4494 16.6517 16.6517C14.4494 18.854 14.4494 22.3995 16.6517 24.6017L37.05 45L16.6517 65.3983C14.4494 67.6006 14.4494 71.146 16.6517 73.3483C18.854 75.5506 22.3995 75.5506 24.6017 73.3483L45 52.95L65.3983 73.3483C67.6006 75.5506 71.146 75.5506 73.3483 73.3483C75.535 71.146 75.535 67.5849 73.3483 65.3983Z" fill="black"/>
</svg>
