<svg width="140" height="140" viewBox="0 0 140 140" fill="none" xmlns="http://www.w3.org/2000/svg">
<path d="M78.7513 94.0625C78.7513 95.27 77.7669 96.25 76.5638 96.25C77.2025 96.25 66.2956 96.25 65.6263 96.25V91.875C65.1756 91.875 75.7806 91.875 76.5638 91.875C77.7669 91.875 78.7513 92.855 78.7513 94.0625Z" fill="black"/>
<path d="M72.1875 83.125H65.625V78.75H72.1875C73.3906 78.75 74.375 79.73 74.375 80.9375C74.375 82.145 73.3906 83.125 72.1875 83.125Z" fill="black"/>
<path d="M92.8856 41.5625H46.8956C38.0494 53.1738 17.5 66.6488 17.5 88.8475C17.5 107.691 31.8194 131.25 70 131.25C108.181 131.25 122.5 107.691 122.5 88.8475C122.5 66.4563 101.601 53.4231 92.8856 41.5625ZM75.9063 105H74.375V111.562H70V105H65.625V111.562H61.25V105H59.0625C57.855 105 56.875 104.02 56.875 102.812C56.875 102.139 56.875 71.1112 56.875 72.1875C56.875 70.98 57.855 70 59.0625 70H61.25V63.4375H65.625V70H70V63.4375H74.375V70.2231C80.7188 71.5181 84.9013 78.26 82.3769 84.8356C85.7325 86.9575 87.8806 90.8294 87.4475 95.1781C86.8744 100.879 81.6375 105 75.9063 105Z" fill="black"/>
<path d="M45.9375 26.2495H49.8094C47.9063 20.9207 44.0081 16.6857 42.1181 12.4682C41.58 11.2651 42.1881 9.83447 43.4438 9.4276C53.655 6.14635 68.3681 18.9563 93.7388 10.5826C94.9944 10.167 95.9875 11.5845 95.2044 12.652C92.3387 16.5545 90.4619 21.1745 89.6219 26.2495H94.0625C96.4819 26.2495 98.4375 28.2095 98.4375 30.6245C98.4375 33.0395 96.4819 34.9995 94.0625 34.9995H45.9375C43.5181 34.9995 41.5625 33.0395 41.5625 30.6245C41.5625 28.2095 43.5181 26.2495 45.9375 26.2495Z" fill="black"/>
</svg>
