<svg width="24" height="24" viewBox="0 0 24 24" fill="none" xmlns="http://www.w3.org/2000/svg">
<path d="M21 2H3C1.89543 2 1 2.89543 1 4C1 5.10457 1.89543 6 3 6H21C22.1046 6 23 5.10457 23 4C23 2.89543 22.1046 2 21 2Z" fill="#232323"/>
<path d="M21 18H3C1.89543 18 1 18.8954 1 20C1 21.1046 1.89543 22 3 22H21C22.1046 22 23 21.1046 23 20C23 18.8954 22.1046 18 21 18Z" fill="#232323"/>
<path d="M21 10H3C1.89543 10 1 10.8954 1 12C1 13.1046 1.89543 14 3 14H21C22.1046 14 23 13.1046 23 12C23 10.8954 22.1046 10 21 10Z" fill="#232323"/>
</svg>
