<svg width="144" height="144" viewBox="0 0 144 144" fill="none" xmlns="http://www.w3.org/2000/svg">
<path d="M54.1103 100C55.6658 102.333 57.9992 103.111 60.3325 103.111C62.6658 103.111 64.9992 102.333 66.5547 100L101.555 53.3335C103.888 50.2224 103.11 44.7779 99.9992 42.4446C96.8881 40.1113 91.4436 40.889 89.1103 44.0001L60.3325 82.1113L54.8881 75.1113C52.5547 72.0001 47.1103 71.2224 43.9992 73.5557C40.8881 75.889 40.1103 81.3335 42.4436 84.4446L54.1103 100Z" fill="#539B29"/>
<path d="M72 142C110.889 142 142 110.889 142 72C142 33.1111 110.889 2 72 2C33.1111 2 2 33.1111 2 72C2 110.889 33.1111 142 72 142ZM72 17.5556C102.333 17.5556 126.444 41.6667 126.444 72C126.444 102.333 102.333 126.444 72 126.444C41.6667 126.444 17.5556 102.333 17.5556 72C17.5556 41.6667 41.6667 17.5556 72 17.5556Z" fill="#539B29"/>
</svg>
